<svg width="90" height="90" viewBox="0 0 90 90" fill="none" xmlns="http://www.w3.org/2000/svg">
<path d="M83.04 41.112L75.6 34.2L69 21C68.4333 20.0783 67.6387 19.3181 66.6929 18.7927C65.7471 18.2672 64.6819 17.9942 63.6 18H26.4C25.3181 17.9942 24.2529 18.2672 23.3071 18.7927C22.3613 19.3181 21.5667 20.0783 21 21L14.4 34.2L6.96 41.112C6.65691 41.3931 6.41518 41.7338 6.24998 42.1127C6.08478 42.4916 5.99968 42.9006 6 43.314V69C6 69.7956 6.31607 70.5587 6.87868 71.1213C7.44129 71.6839 8.20435 72 9 72H21C22.2 72 24 70.8 24 69.6V66H66V69C66 70.2 67.2 72 68.4 72H81C81.7956 72 82.5587 71.6839 83.1213 71.1213C83.6839 70.5587 84 69.7956 84 69V43.314C84.0003 42.9006 83.9152 42.4916 83.75 42.1127C83.5848 41.7338 83.3431 41.3931 83.04 41.112ZM27 24H63L69 36H21L27 24ZM30 51.6C30 52.8 28.2 54 27 54H14.4C13.2 54 12 52.2 12 51V44.4C12.6 42.6 13.8 41.4 15.6 42L27.6 44.4C28.8 44.4 30 46.2 30 47.4V51.6ZM78 51C78 52.2 76.8 54 75.6 54H63C61.8 54 60 52.8 60 51.6V47.4C60 46.2 61.2 44.4 62.4 44.4L74.4 42C76.2 41.4 77.4 42.6 78 44.4V51Z" fill="white"/>
</svg>
