<svg width="243" height="38" viewBox="0 0 243 38" fill="none" xmlns="http://www.w3.org/2000/svg">
<path d="M43.6986 6.94366H17.3217C17.2903 6.94366 17.2593 6.94966 17.2303 6.9613C17.2014 6.97294 17.1751 6.99001 17.1529 7.01152C17.1307 7.03304 17.1132 7.05858 17.1012 7.08669C17.0892 7.1148 17.083 7.14493 17.083 7.17535L17.0576 11.2324C17.0576 11.2938 17.0325 11.3528 16.9877 11.3962C16.9429 11.4397 16.8822 11.4641 16.8189 11.4641L13.2438 11.469C13.1805 11.469 13.1197 11.4446 13.075 11.4012C13.0302 11.3577 13.0051 11.2988 13.0051 11.2373V3.23169C13.0051 3.17024 13.0302 3.11131 13.075 3.06786C13.1197 3.02441 13.1805 3 13.2438 3H47.7562C47.8195 3 47.8803 3.02441 47.925 3.06786C47.9698 3.11131 47.9949 3.17024 47.9949 3.23169L48 37.7683C48 37.8298 47.9749 37.8887 47.9301 37.9321C47.8853 37.9756 47.8246 38 47.7613 38H13.2387C13.1754 38 13.1147 37.9756 13.0699 37.9321C13.0251 37.8887 13 37.8298 13 37.7683L13.0102 30.4627C13.0102 30.4012 13.0353 30.3423 13.0801 30.2988C13.1248 30.2554 13.1855 30.231 13.2488 30.231L16.8392 30.2408C16.9025 30.2408 16.9632 30.2653 17.008 30.3087C17.0528 30.3522 17.0779 30.4111 17.0779 30.4725L17.0728 33.8246C17.0728 33.8861 17.098 33.945 17.1427 33.9885C17.1875 34.0319 17.2482 34.0563 17.3115 34.0563H43.6986C43.7619 34.0563 43.8227 34.0319 43.8674 33.9885C43.9122 33.945 43.9373 33.8861 43.9373 33.8246V7.17535C43.9373 7.1139 43.9122 7.05497 43.8674 7.01152C43.8227 6.96807 43.7619 6.94366 43.6986 6.94366Z" fill="#0A4A95"/>
<path d="M36.7943 25.711H23.2107C23.1576 25.711 23.1067 25.7319 23.0691 25.7692C23.0316 25.8064 23.0105 25.857 23.0105 25.9096L23.0005 32.7865C23.0005 32.8392 22.9794 32.8897 22.9418 32.9269C22.9042 32.9642 22.8533 32.9851 22.8002 32.9851L19.2003 33C19.1472 33 19.0962 32.9791 19.0587 32.9418C19.0211 32.9046 19 32.8541 19 32.8014L19.01 8.2135C19.01 8.16083 19.0311 8.11031 19.0687 8.07307C19.1062 8.03582 19.1572 8.0149 19.2103 8.0149L22.7902 8.00496C22.8433 8.00496 22.8942 8.02589 22.9318 8.06314C22.9693 8.10038 22.9904 8.1509 22.9904 8.20357L23.0055 15.5819C23.0055 15.6346 23.0266 15.6851 23.0641 15.7224C23.1017 15.7596 23.1526 15.7805 23.2057 15.7805H36.7943C36.8474 15.7805 36.8983 15.7596 36.9359 15.7224C36.9734 15.6851 36.9945 15.6346 36.9945 15.5819L36.9995 8.2135C36.9995 8.16083 37.0206 8.11031 37.0582 8.07307C37.0958 8.03582 37.1467 8.0149 37.1998 8.0149L40.7997 8C40.8528 8 40.9038 8.02092 40.9413 8.05817C40.9789 8.09542 41 8.14593 41 8.19861V32.7915C41 32.8441 40.9789 32.8946 40.9413 32.9319C40.9038 32.9691 40.8528 32.9901 40.7997 32.9901L37.1948 32.995C37.1685 32.995 37.1425 32.9899 37.1182 32.9799C37.0939 32.9699 37.0718 32.9553 37.0532 32.9369C37.0346 32.9184 37.0198 32.8965 37.0098 32.8724C36.9997 32.8483 36.9945 32.8225 36.9945 32.7964V25.9096C36.9945 25.857 36.9734 25.8064 36.9359 25.7692C36.8983 25.7319 36.8474 25.711 36.7943 25.711ZM36.9945 19.996C36.9945 19.9328 36.9692 19.8722 36.9241 19.8275C36.8791 19.7828 36.8179 19.7577 36.7542 19.7577H23.2458C23.1821 19.7577 23.1209 19.7828 23.0759 19.8275C23.0308 19.8722 23.0055 19.9328 23.0055 19.996V21.4955C23.0055 21.5587 23.0308 21.6194 23.0759 21.6641C23.1209 21.7088 23.1821 21.7339 23.2458 21.7339H36.7542C36.8179 21.7339 36.8791 21.7088 36.9241 21.6641C36.9692 21.6194 36.9945 21.5587 36.9945 21.4955V19.996Z" fill="#0A4A95"/>
<path d="M2.5 24C3.88071 24 5 22.8807 5 21.5C5 20.1193 3.88071 19 2.5 19C1.11929 19 0 20.1193 0 21.5C0 22.8807 1.11929 24 2.5 24Z" fill="#0A4A95"/>
<path d="M61.5 24C62.8807 24 64 22.8807 64 21.5C64 20.1193 62.8807 19 61.5 19C60.1193 19 59 20.1193 59 21.5C59 22.8807 60.1193 24 61.5 24Z" fill="#0A4A95"/>
<path d="M90.73 7.662V21H87.481V15.509H82.427V21H79.178V7.662H82.427V12.887H87.481V7.662H90.73ZM101.378 18.644H96.4005L95.6025 21H92.2015L97.0275 7.662H100.789L105.615 21H102.176L101.378 18.644ZM100.542 16.136L98.8895 11.253L97.2555 16.136H100.542ZM112.081 7.662C113.487 7.662 114.716 7.94067 115.767 8.498C116.819 9.05533 117.629 9.84067 118.199 10.854C118.782 11.8547 119.073 13.0137 119.073 14.331C119.073 15.6357 118.782 16.7947 118.199 17.808C117.629 18.8213 116.812 19.6067 115.748 20.164C114.697 20.7213 113.475 21 112.081 21H107.084V7.662H112.081ZM111.872 18.188C113.101 18.188 114.057 17.8523 114.741 17.181C115.425 16.5097 115.767 15.5597 115.767 14.331C115.767 13.1023 115.425 12.146 114.741 11.462C114.057 10.778 113.101 10.436 111.872 10.436H110.333V18.188H111.872ZM124.138 10.265V12.963H128.489V15.471H124.138V18.397H129.059V21H120.889V7.662H129.059V10.265H124.138ZM134.417 10.265V12.963H138.768V15.471H134.417V18.397H139.338V21H131.168V7.662H139.338V10.265H134.417ZM154.157 7.662V10.265H148.723V13.077H152.789V15.604H148.723V21H145.474V7.662H154.157ZM162.173 21.133C160.919 21.133 159.766 20.8417 158.715 20.259C157.676 19.6763 156.846 18.8657 156.226 17.827C155.618 16.7757 155.314 15.5977 155.314 14.293C155.314 12.9883 155.618 11.8167 156.226 10.778C156.846 9.73933 157.676 8.92867 158.715 8.346C159.766 7.76333 160.919 7.472 162.173 7.472C163.427 7.472 164.573 7.76333 165.612 8.346C166.663 8.92867 167.486 9.73933 168.082 10.778C168.69 11.8167 168.994 12.9883 168.994 14.293C168.994 15.5977 168.69 16.7757 168.082 17.827C167.474 18.8657 166.65 19.6763 165.612 20.259C164.573 20.8417 163.427 21.133 162.173 21.133ZM162.173 18.169C163.237 18.169 164.085 17.8143 164.719 17.105C165.365 16.3957 165.688 15.4583 165.688 14.293C165.688 13.115 165.365 12.1777 164.719 11.481C164.085 10.7717 163.237 10.417 162.173 10.417C161.096 10.417 160.235 10.7653 159.589 11.462C158.955 12.1587 158.639 13.1023 158.639 14.293C158.639 15.471 158.955 16.4147 159.589 17.124C160.235 17.8207 161.096 18.169 162.173 18.169ZM177.603 21L174.829 15.965H174.05V21H170.801V7.662H176.254C177.305 7.662 178.198 7.84567 178.933 8.213C179.68 8.58033 180.238 9.087 180.605 9.733C180.972 10.3663 181.156 11.0757 181.156 11.861C181.156 12.7477 180.903 13.5393 180.396 14.236C179.902 14.9327 179.167 15.4267 178.192 15.718L181.27 21H177.603ZM174.05 13.666H176.064C176.659 13.666 177.103 13.5203 177.394 13.229C177.698 12.9377 177.85 12.526 177.85 11.994C177.85 11.4873 177.698 11.0883 177.394 10.797C177.103 10.5057 176.659 10.36 176.064 10.36H174.05V13.666ZM192.05 11.88C191.809 11.4367 191.461 11.101 191.005 10.873C190.561 10.6323 190.036 10.512 189.428 10.512C188.376 10.512 187.534 10.8603 186.901 11.557C186.267 12.241 185.951 13.1593 185.951 14.312C185.951 15.5407 186.28 16.5033 186.939 17.2C187.61 17.884 188.528 18.226 189.694 18.226C190.492 18.226 191.163 18.0233 191.708 17.618C192.265 17.2127 192.67 16.63 192.924 15.87H188.801V13.476H195.869V16.497C195.628 17.3077 195.216 18.0613 194.634 18.758C194.064 19.4547 193.335 20.0183 192.449 20.449C191.562 20.8797 190.561 21.095 189.447 21.095C188.129 21.095 186.951 20.81 185.913 20.24C184.887 19.6573 184.082 18.853 183.5 17.827C182.93 16.801 182.645 15.6293 182.645 14.312C182.645 12.9947 182.93 11.823 183.5 10.797C184.082 9.75833 184.887 8.954 185.913 8.384C186.939 7.80133 188.11 7.51 189.428 7.51C191.024 7.51 192.366 7.89633 193.456 8.669C194.558 9.44167 195.286 10.512 195.641 11.88H192.05ZM200.917 7.662V21H197.668V7.662H200.917ZM215.204 21H211.955L206.521 12.773V21H203.272V7.662H206.521L211.955 15.927V7.662H215.204V21ZM226.413 11.88C226.172 11.4367 225.824 11.101 225.368 10.873C224.925 10.6323 224.399 10.512 223.791 10.512C222.74 10.512 221.897 10.8603 221.264 11.557C220.631 12.241 220.314 13.1593 220.314 14.312C220.314 15.5407 220.643 16.5033 221.302 17.2C221.973 17.884 222.892 18.226 224.057 18.226C224.855 18.226 225.526 18.0233 226.071 17.618C226.628 17.2127 227.034 16.63 227.287 15.87H223.164V13.476H230.232V16.497C229.991 17.3077 229.58 18.0613 228.997 18.758C228.427 19.4547 227.699 20.0183 226.812 20.449C225.925 20.8797 224.925 21.095 223.81 21.095C222.493 21.095 221.315 20.81 220.276 20.24C219.25 19.6573 218.446 18.853 217.863 17.827C217.293 16.801 217.008 15.6293 217.008 14.312C217.008 12.9947 217.293 11.823 217.863 10.797C218.446 9.75833 219.25 8.954 220.276 8.384C221.302 7.80133 222.474 7.51 223.791 7.51C225.387 7.51 226.73 7.89633 227.819 8.669C228.921 9.44167 229.649 10.512 230.004 11.88H226.413ZM236.858 21.133C235.882 21.133 235.008 20.9747 234.236 20.658C233.463 20.3413 232.842 19.8727 232.374 19.252C231.918 18.6313 231.677 17.884 231.652 17.01H235.11C235.16 17.504 235.331 17.884 235.623 18.15C235.914 18.4033 236.294 18.53 236.763 18.53C237.244 18.53 237.624 18.4223 237.903 18.207C238.181 17.979 238.321 17.6687 238.321 17.276C238.321 16.9467 238.207 16.6743 237.979 16.459C237.763 16.2437 237.491 16.0663 237.162 15.927C236.845 15.7877 236.389 15.6293 235.794 15.452C234.932 15.186 234.229 14.92 233.685 14.654C233.14 14.388 232.671 13.9953 232.279 13.476C231.886 12.9567 231.69 12.279 231.69 11.443C231.69 10.2017 232.139 9.23267 233.039 8.536C233.938 7.82667 235.11 7.472 236.554 7.472C238.023 7.472 239.207 7.82667 240.107 8.536C241.006 9.23267 241.487 10.208 241.551 11.462H238.036C238.01 11.0313 237.852 10.6957 237.561 10.455C237.269 10.2017 236.896 10.075 236.44 10.075C236.047 10.075 235.73 10.1827 235.49 10.398C235.249 10.6007 235.129 10.8983 235.129 11.291C235.129 11.7217 235.331 12.0573 235.737 12.298C236.142 12.5387 236.775 12.7983 237.637 13.077C238.498 13.3683 239.195 13.647 239.727 13.913C240.271 14.179 240.74 14.5653 241.133 15.072C241.525 15.5787 241.722 16.231 241.722 17.029C241.722 17.789 241.525 18.4793 241.133 19.1C240.753 19.7207 240.195 20.2147 239.461 20.582C238.726 20.9493 237.858 21.133 236.858 21.133Z" fill="#0A4A95"/>
<path d="M108.96 27.02L105.8 31.57L105.37 34H103.96L104.4 31.57L102.83 27.02H104.41L105.34 30.19L107.38 27.02H108.96ZM111.007 34.09C110.534 34.09 110.114 33.9933 109.747 33.8C109.387 33.6067 109.107 33.3333 108.907 32.98C108.707 32.6267 108.607 32.22 108.607 31.76C108.607 31.1333 108.754 30.5633 109.047 30.05C109.347 29.53 109.754 29.12 110.267 28.82C110.787 28.52 111.364 28.37 111.997 28.37C112.471 28.37 112.891 28.47 113.257 28.67C113.631 28.8633 113.917 29.1367 114.117 29.49C114.324 29.8433 114.427 30.25 114.427 30.71C114.427 31.3433 114.277 31.9167 113.977 32.43C113.677 32.9433 113.264 33.35 112.737 33.65C112.217 33.9433 111.641 34.09 111.007 34.09ZM111.197 32.89C111.531 32.89 111.834 32.7933 112.107 32.6C112.381 32.4067 112.594 32.15 112.747 31.83C112.901 31.51 112.977 31.1733 112.977 30.82C112.977 30.42 112.864 30.1133 112.637 29.9C112.417 29.68 112.137 29.57 111.797 29.57C111.457 29.57 111.154 29.6667 110.887 29.86C110.627 30.0533 110.424 30.3133 110.277 30.64C110.131 30.96 110.057 31.3 110.057 31.66C110.057 32.0533 110.161 32.3567 110.367 32.57C110.581 32.7833 110.857 32.89 111.197 32.89ZM121.114 28.46L120.134 34H118.734L118.854 33.3C118.641 33.54 118.378 33.73 118.064 33.87C117.751 34.0033 117.421 34.07 117.074 34.07C116.501 34.07 116.048 33.9167 115.714 33.61C115.381 33.2967 115.214 32.8533 115.214 32.28C115.214 32.0667 115.231 31.8767 115.264 31.71L115.834 28.46H117.234L116.694 31.51C116.674 31.63 116.664 31.7467 116.664 31.86C116.664 32.1867 116.754 32.44 116.934 32.62C117.114 32.7933 117.368 32.88 117.694 32.88C118.074 32.88 118.398 32.7633 118.664 32.53C118.931 32.29 119.101 31.95 119.174 31.51L119.714 28.46H121.114ZM123.736 29.44C123.976 29.1067 124.256 28.8467 124.576 28.66C124.896 28.4733 125.242 28.38 125.616 28.38L125.356 29.85H124.986C124.572 29.85 124.239 29.94 123.986 30.12C123.739 30.3 123.559 30.6067 123.446 31.04L122.926 34H121.516L122.496 28.46H123.906L123.736 29.44ZM134.174 29.18C134.108 29.5533 133.958 29.9033 133.724 30.23C133.491 30.5567 133.168 30.82 132.754 31.02C132.348 31.22 131.858 31.32 131.284 31.32H130.114L129.644 34H128.234L129.474 27.02H132.044C132.758 27.02 133.298 27.18 133.664 27.5C134.031 27.8133 134.214 28.2333 134.214 28.76C134.214 28.9133 134.201 29.0533 134.174 29.18ZM131.424 30.22C131.804 30.22 132.104 30.1267 132.324 29.94C132.544 29.7533 132.684 29.5 132.744 29.18C132.758 29.12 132.764 29.0333 132.764 28.92C132.764 28.3933 132.438 28.13 131.784 28.13H130.684L130.314 30.22H131.424ZM134.458 31.21C134.558 30.65 134.755 30.1533 135.048 29.72C135.348 29.2867 135.712 28.9533 136.138 28.72C136.565 28.4867 137.015 28.37 137.488 28.37C137.902 28.37 138.248 28.4533 138.528 28.62C138.815 28.7867 139.025 28.9967 139.158 29.25L139.298 28.46H140.708L139.728 34H138.318L138.468 33.19C138.248 33.45 137.962 33.6667 137.608 33.84C137.262 34.0067 136.882 34.09 136.468 34.09C136.062 34.09 135.702 34 135.388 33.82C135.075 33.6333 134.832 33.3733 134.658 33.04C134.485 32.7 134.398 32.3067 134.398 31.86C134.398 31.6533 134.418 31.4367 134.458 31.21ZM138.808 31.23C138.835 31.0567 138.848 30.93 138.848 30.85C138.848 30.4567 138.732 30.15 138.498 29.93C138.272 29.71 137.985 29.6 137.638 29.6C137.378 29.6 137.125 29.6633 136.878 29.79C136.638 29.9167 136.428 30.1033 136.248 30.35C136.068 30.59 135.948 30.8767 135.888 31.21C135.868 31.3367 135.858 31.4567 135.858 31.57C135.858 31.97 135.972 32.2867 136.198 32.52C136.425 32.7467 136.712 32.86 137.058 32.86C137.318 32.86 137.572 32.7967 137.818 32.67C138.065 32.5367 138.275 32.3467 138.448 32.1C138.628 31.8533 138.748 31.5633 138.808 31.23ZM143.316 29.44C143.556 29.1067 143.836 28.8467 144.156 28.66C144.476 28.4733 144.822 28.38 145.196 28.38L144.936 29.85H144.566C144.152 29.85 143.819 29.94 143.566 30.12C143.319 30.3 143.139 30.6067 143.026 31.04L142.506 34H141.096L142.076 28.46H143.486L143.316 29.44ZM147.079 32.29C147.072 32.33 147.069 32.3833 147.069 32.45C147.069 32.5833 147.105 32.68 147.179 32.74C147.259 32.7933 147.389 32.82 147.569 32.82H148.229L148.019 34H147.129C146.129 34 145.629 33.5833 145.629 32.75C145.629 32.59 145.642 32.4333 145.669 32.28L146.139 29.61H145.479L145.679 28.46H146.349L146.589 27.09H147.999L147.759 28.46H148.989L148.789 29.61H147.549L147.079 32.29ZM153.076 28.38C153.649 28.38 154.099 28.5367 154.426 28.85C154.759 29.1567 154.926 29.5967 154.926 30.17C154.926 30.3833 154.909 30.5767 154.876 30.75L154.296 34H152.906L153.446 30.94C153.466 30.82 153.476 30.7033 153.476 30.59C153.476 30.2567 153.386 30.0033 153.206 29.83C153.032 29.6567 152.782 29.57 152.456 29.57C152.082 29.57 151.762 29.6833 151.496 29.91C151.236 30.13 151.062 30.45 150.976 30.87L150.426 34H149.016L149.996 28.46H151.406L151.286 29.14C151.512 28.9067 151.782 28.7233 152.096 28.59C152.409 28.45 152.736 28.38 153.076 28.38ZM159.047 28.37C159.754 28.37 160.314 28.5667 160.727 28.96C161.14 29.3467 161.347 29.87 161.347 30.53C161.347 30.7433 161.33 30.9333 161.297 31.1C161.257 31.3 161.214 31.4733 161.167 31.62H157.117C157.11 31.6667 157.107 31.7333 157.107 31.82C157.107 32.1667 157.207 32.44 157.407 32.64C157.614 32.8333 157.884 32.93 158.217 32.93C158.497 32.93 158.737 32.87 158.937 32.75C159.144 32.6233 159.31 32.46 159.437 32.26H160.947C160.7 32.7933 160.317 33.2333 159.797 33.58C159.284 33.92 158.7 34.09 158.047 34.09C157.34 34.09 156.774 33.89 156.347 33.49C155.92 33.09 155.707 32.5467 155.707 31.86C155.707 31.66 155.727 31.45 155.767 31.23C155.867 30.6567 156.07 30.1533 156.377 29.72C156.69 29.2867 157.077 28.9533 157.537 28.72C157.997 28.4867 158.5 28.37 159.047 28.37ZM159.907 30.77C159.92 30.6633 159.927 30.5867 159.927 30.54C159.927 30.22 159.824 29.97 159.617 29.79C159.41 29.61 159.14 29.52 158.807 29.52C158.454 29.52 158.137 29.6333 157.857 29.86C157.577 30.08 157.38 30.3833 157.267 30.77H159.907ZM164.019 29.44C164.259 29.1067 164.539 28.8467 164.859 28.66C165.179 28.4733 165.526 28.38 165.899 28.38L165.639 29.85H165.269C164.856 29.85 164.522 29.94 164.269 30.12C164.022 30.3 163.842 30.6067 163.729 31.04L163.209 34H161.799L162.779 28.46H164.189L164.019 29.44ZM170.328 27.8C170.108 27.8 169.931 27.7367 169.798 27.61C169.664 27.4833 169.598 27.3233 169.598 27.13C169.598 26.8633 169.698 26.6367 169.898 26.45C170.104 26.2567 170.344 26.16 170.618 26.16C170.831 26.16 171.004 26.2233 171.138 26.35C171.271 26.4767 171.338 26.6367 171.338 26.83C171.338 27.0967 171.238 27.3267 171.038 27.52C170.838 27.7067 170.601 27.8 170.328 27.8ZM170.908 28.46L169.928 34H168.518L169.498 28.46H170.908ZM175.361 28.38C175.934 28.38 176.384 28.5367 176.711 28.85C177.044 29.1567 177.211 29.5967 177.211 30.17C177.211 30.3833 177.194 30.5767 177.161 30.75L176.581 34H175.191L175.731 30.94C175.751 30.82 175.761 30.7033 175.761 30.59C175.761 30.2567 175.671 30.0033 175.491 29.83C175.318 29.6567 175.068 29.57 174.741 29.57C174.368 29.57 174.048 29.6833 173.781 29.91C173.521 30.13 173.348 30.45 173.261 30.87L172.711 34H171.301L172.281 28.46H173.691L173.571 29.14C173.798 28.9067 174.068 28.7233 174.381 28.59C174.694 28.45 175.021 28.38 175.361 28.38ZM186.528 29.18C186.461 29.5533 186.311 29.9033 186.078 30.23C185.845 30.5567 185.521 30.82 185.108 31.02C184.701 31.22 184.211 31.32 183.638 31.32H182.468L181.998 34H180.588L181.828 27.02H184.398C185.111 27.02 185.651 27.18 186.018 27.5C186.385 27.8133 186.568 28.2333 186.568 28.76C186.568 28.9133 186.555 29.0533 186.528 29.18ZM183.778 30.22C184.158 30.22 184.458 30.1267 184.678 29.94C184.898 29.7533 185.038 29.5 185.098 29.18C185.111 29.12 185.118 29.0333 185.118 28.92C185.118 28.3933 184.791 28.13 184.138 28.13H183.038L182.668 30.22H183.778ZM188.892 29.44C189.132 29.1067 189.412 28.8467 189.732 28.66C190.052 28.4733 190.399 28.38 190.772 28.38L190.512 29.85H190.142C189.729 29.85 189.395 29.94 189.142 30.12C188.895 30.3 188.715 30.6067 188.602 31.04L188.082 34H186.672L187.652 28.46H189.062L188.892 29.44ZM193.195 34.09C192.722 34.09 192.302 33.9933 191.935 33.8C191.575 33.6067 191.295 33.3333 191.095 32.98C190.895 32.6267 190.795 32.22 190.795 31.76C190.795 31.1333 190.942 30.5633 191.235 30.05C191.535 29.53 191.942 29.12 192.455 28.82C192.975 28.52 193.552 28.37 194.185 28.37C194.658 28.37 195.078 28.47 195.445 28.67C195.818 28.8633 196.105 29.1367 196.305 29.49C196.512 29.8433 196.615 30.25 196.615 30.71C196.615 31.3433 196.465 31.9167 196.165 32.43C195.865 32.9433 195.452 33.35 194.925 33.65C194.405 33.9433 193.828 34.09 193.195 34.09ZM193.385 32.89C193.718 32.89 194.022 32.7933 194.295 32.6C194.568 32.4067 194.782 32.15 194.935 31.83C195.088 31.51 195.165 31.1733 195.165 30.82C195.165 30.42 195.052 30.1133 194.825 29.9C194.605 29.68 194.325 29.57 193.985 29.57C193.645 29.57 193.342 29.6667 193.075 29.86C192.815 30.0533 192.612 30.3133 192.465 30.64C192.318 30.96 192.245 31.3 192.245 31.66C192.245 32.0533 192.348 32.3567 192.555 32.57C192.768 32.7833 193.045 32.89 193.385 32.89ZM198.282 28.18C198.402 27.5 198.682 27 199.122 26.68C199.562 26.36 200.169 26.21 200.942 26.23L200.742 27.41C200.409 27.4033 200.162 27.46 200.002 27.58C199.842 27.7 199.735 27.9167 199.682 28.23L199.642 28.46H200.612L200.412 29.61H199.442L198.662 34H197.252L198.032 29.61H197.392L197.592 28.46H198.232L198.282 28.18ZM202.349 27.8C202.129 27.8 201.952 27.7367 201.819 27.61C201.686 27.4833 201.619 27.3233 201.619 27.13C201.619 26.8633 201.719 26.6367 201.919 26.45C202.126 26.2567 202.366 26.16 202.639 26.16C202.852 26.16 203.026 26.2233 203.159 26.35C203.292 26.4767 203.359 26.6367 203.359 26.83C203.359 27.0967 203.259 27.3267 203.059 27.52C202.859 27.7067 202.622 27.8 202.349 27.8ZM202.929 28.46L201.949 34H200.539L201.519 28.46H202.929ZM205.262 32.29C205.256 32.33 205.252 32.3833 205.252 32.45C205.252 32.5833 205.289 32.68 205.362 32.74C205.442 32.7933 205.572 32.82 205.752 32.82H206.412L206.202 34H205.312C204.312 34 203.812 33.5833 203.812 32.75C203.812 32.59 203.826 32.4333 203.852 32.28L204.322 29.61H203.662L203.862 28.46H204.532L204.772 27.09H206.182L205.942 28.46H207.172L206.972 29.61H205.732L205.262 32.29Z" fill="#797979"/>
</svg>
