<svg width="78" height="78" viewBox="0 0 78 78" fill="none" xmlns="http://www.w3.org/2000/svg">
<g id="game-icons:hexagonal-nut">
<path id="Vector" d="M39 4.77832L4.48499 18.8445V46.2512L39 60.3169L73.515 46.251V18.8444L39 4.77832ZM39 16.0411C44.9056 16.0411 50.3069 17.7062 54.3699 20.5742C58.4406 23.448 61.2422 27.6948 61.2422 32.5478C61.2422 37.4009 58.4406 41.6478 54.3699 44.5215C50.3069 47.3892 44.9054 49.0548 39 49.0548C33.0945 49.0548 27.693 47.3892 23.63 44.5213C19.5594 41.6478 16.7578 37.4008 16.7578 32.5477C16.7578 27.6948 19.5594 23.4479 23.63 20.5742C27.693 17.7065 33.0944 16.0411 39 16.0411ZM39 18.7833C33.6131 18.7833 28.743 20.322 25.2114 22.8148C21.9577 25.1115 19.8443 28.2272 19.5396 31.6822C20.6334 29.5189 22.3107 27.597 24.3887 26.0383C28.1851 23.191 33.3374 21.4805 39 21.4805C44.6626 21.4805 49.8149 23.1909 53.6113 26.0383C55.6892 27.5968 57.3665 29.5188 58.4604 31.6822C58.1557 28.2271 56.0422 25.1116 52.7886 22.8148C49.257 20.3218 44.3869 18.7833 39 18.7833ZM39 24.2227C33.8931 24.2227 29.2951 25.7864 26.034 28.2321C23.5919 30.0639 21.9119 32.3492 21.2222 34.8702C22.1206 33.7504 23.1875 32.7282 24.3887 31.8276C28.1851 28.9801 33.3374 27.2696 39 27.2696C44.6626 27.2696 49.8149 28.98 53.6113 31.8274C54.8124 32.7282 55.8794 33.7503 56.7777 34.8702C56.0881 32.3493 54.4082 30.064 51.9658 28.2323C48.7047 25.7864 44.1065 24.2227 39 24.2227ZM39 30.0118C33.8931 30.0118 29.2951 31.5754 26.034 34.0212C24.1233 35.4543 22.6803 37.1652 21.812 39.0491C21.9384 39.2156 22.0709 39.3794 22.2065 39.5416C22.8811 38.8424 23.6108 38.1986 24.3887 37.6165C28.1851 34.7692 33.3374 33.0587 39 33.0587C44.6626 33.0587 49.8149 34.769 53.6113 37.6165C54.3892 38.1986 55.1189 38.8424 55.7934 39.5416C55.929 39.3794 56.0616 39.2156 56.188 39.0491C55.3197 37.1652 53.8767 35.4543 51.9658 34.0212C48.7047 31.5754 44.1065 30.0118 39 30.0118ZM4.48499 49.2121V60.0157L37.6289 73.523V62.7194L4.48499 49.2121ZM73.515 49.2121L40.3711 62.72V73.5231L73.515 60.0157V49.2121Z" fill="#78A9E1"/>
</g>
</svg>
